<?xml version="1.0" encoding="UTF-8" standalone="no"?>
<svg width="18px" height="11px" viewBox="0 0 18 11" version="1.1" xmlns="http://www.w3.org/2000/svg" xmlns:xlink="http://www.w3.org/1999/xlink">
    <!-- Generator: sketchtool 3.8.3 (29802) - http://www.bohemiancoding.com/sketch -->
    <title>8B28611B-969C-4FDD-A343-ECF07F008629</title>
    <desc>Created with sketchtool.</desc>
    <defs></defs>
    <g id="Welcome" stroke="none" stroke-width="1" fill="none" fill-rule="evenodd">
        <g id="Dashboard" transform="translate(-25.000000, -133.000000)" fill="#5C9DF5">
            <g id="side-bar">
                <g id="analitycs" transform="translate(25.000000, 133.000000)">
                    <path d="M1.27826087,8.84105015 C0.57826087,8.84105015 0,8.29559271 0,7.63466717 C0,6.97402888 0.57826087,6.42857143 1.27826087,6.42857143 C1.97826087,6.42857143 2.55652174,6.97402888 2.55652174,7.63466717 C2.55652174,8.29530547 1.97826087,8.84105015 1.27826087,8.84105015 L1.27826087,8.84105015 Z" id="Shape"></path>
                    <path d="M9.27826087,10.1267644 C8.57826087,10.1267644 8,9.58130699 8,8.92038146 C8,8.25974316 8.57826087,7.71428571 9.27826087,7.71428571 C9.97826087,7.71428571 10.5565217,8.25974316 10.5565217,8.92038146 C10.5565217,9.58101976 9.97826087,10.1267644 9.27826087,10.1267644 L9.27826087,10.1267644 Z" id="Shape-Copy-2"></path>
                    <path d="M16.6115942,2.41247872 C15.9115942,2.41247872 15.3333333,1.86702128 15.3333333,1.20609574 C15.3333333,0.545457447 15.9115942,0 16.6115942,0 C17.3115942,0 17.8898551,0.545457447 17.8898551,1.20609574 C17.8898551,1.86673404 17.3115942,2.41247872 16.6115942,2.41247872 L16.6115942,2.41247872 Z" id="Shape-Copy-3"></path>
                    <path d="M4.56811594,5.36717325 C3.86811594,5.36717325 3.28985507,4.82142857 3.28985507,4.16079027 C3.28985507,3.50015198 3.86811594,2.95440729 4.56811594,2.95440729 C5.26811594,2.95440729 5.84637681,3.50015198 5.84637681,4.16079027 C5.84637681,4.82142857 5.26811594,5.36717325 4.56811594,5.36717325 L4.56811594,5.36717325 Z M4.56811594,3.47142857 C4.17246377,3.47142857 3.86811594,3.75866261 3.86811594,4.13206687 C3.86811594,4.50547112 4.17246377,4.79270517 4.56811594,4.79270517 C4.96376812,4.79270517 5.26811594,4.50547112 5.26811594,4.13206687 C5.26811594,3.75866261 4.96376812,3.47142857 4.56811594,3.47142857 L4.56811594,3.47142857 Z" id="Shape"></path>
                    <path d="M13.2782609,6.26990881 C12.5782609,6.26990881 12,5.72416413 12,5.06352584 C12,4.40288754 12.5782609,3.85714286 13.2782609,3.85714286 C13.9782609,3.85714286 14.5565217,4.40288754 14.5565217,5.06352584 C14.5565217,5.72416413 14.0086957,6.26990881 13.2782609,6.26990881 L13.2782609,6.26990881 Z M13.2782609,4.40288754 C12.8826087,4.40288754 12.5782609,4.69012158 12.5782609,5.06352584 C12.5782609,5.43693009 12.8826087,5.72416413 13.2782609,5.72416413 C13.673913,5.72416413 13.9782609,5.43693009 13.9782609,5.06352584 C13.9782609,4.69012158 13.673913,4.40288754 13.2782609,4.40288754 L13.2782609,4.40288754 Z" id="Shape"></path>
                    <path d="M1.88863254,7.20900935 C1.73645863,7.12283914 1.70602385,6.95049872 1.7973282,6.8356051 L3.80724638,4.85015198 C3.89855072,4.70653495 4.08115942,4.67781155 4.20289855,4.76398176 C4.35507246,4.85015198 4.38550725,5.0224924 4.2942029,5.13738602 L2.3147195,7.09411574 C2.25384994,7.18028595 2.16254559,7.23773276 2.04080646,7.23773276 C2.04080646,7.23773276 1.94950211,7.23773276 1.88863254,7.20900935 Z" id="Shape"></path>
                    <path d="M8.47696934,8.50276192 L5.11594203,4.993769 C4.9942029,4.90759878 4.96376812,4.73525836 5.05507246,4.62036474 C5.14637681,4.50547112 5.32898551,4.47674772 5.45072464,4.56291793 L8.8120563,8.07191085 C8.93349108,8.15808107 8.96423021,8.33042149 8.87292586,8.44531511 C8.84249108,8.50276192 8.75118673,8.56020873 8.65988238,8.56020873 C8.59901282,8.56020873 8.53814325,8.53148532 8.47696934,8.50276192 Z" id="Shape"></path>
                    <path d="M9.95164856,8.6626362 C9.79947464,8.6051894 9.70817029,8.46157237 9.76903986,8.31795535 L12.2968716,5.79439408 C12.3580455,5.6510643 12.5406542,5.59361749 12.6928281,5.62234089 C12.845002,5.6797877 12.9363064,5.82340472 12.8754368,5.96702174 L10.3479094,8.49058301 C10.2867355,8.60547663 10.1649964,8.69164684 10.0432573,8.69164684 C10.0125181,8.69164684 9.98238769,8.69164684 9.95164856,8.6626362 Z" id="Shape"></path>
                    <path d="M13.9006741,4.54845302 C13.7485002,4.49100621 13.6571958,4.34738919 13.7180654,4.20377216 L15.79497,1.72620221 C15.8561439,1.58287242 16.0387526,1.52542561 16.1909265,1.55414902 C16.3431004,1.61159583 16.4344048,1.75521285 16.3735352,1.89882987 L14.296935,4.37639982 C14.235761,4.49129344 14.1140219,4.57746365 13.9922828,4.57746365 C13.9615437,4.57746365 13.9314132,4.57746365 13.9006741,4.54845302 Z" id="Shape-Copy"></path>
                </g>
            </g>
        </g>
    </g>
</svg>