<?xml version="1.0" encoding="UTF-8" standalone="no"?>
<svg width="9px" height="9px" viewBox="0 0 9 9" version="1.1" xmlns="http://www.w3.org/2000/svg" xmlns:xlink="http://www.w3.org/1999/xlink">
    <!-- Generator: sketchtool 3.8.3 (29802) - http://www.bohemiancoding.com/sketch -->
    <title>E2C9FCFB-2A86-4845-A4C4-0CF3C4175071</title>
    <desc>Created with sketchtool.</desc>
    <defs></defs>
    <g id="Welcome" stroke="none" stroke-width="1" fill="none" fill-rule="evenodd">
        <g id="Dashboard" transform="translate(-25.000000, -417.000000)" fill="#5C9DF5">
            <g id="side-bar">
                <g id="angle-double-left" transform="translate(25.000000, 417.000000)">
                    <path d="M5.42236025,8.25150301 C5.42236025,8.32965932 5.39130435,8.3987976 5.32919255,8.45891784 L4.86335404,8.90981964 C4.80124224,8.96993988 4.72981366,9 4.64906832,9 C4.56832298,9 4.49689441,8.96993988 4.43478261,8.90981964 L0.0931677019,4.70741483 C0.0310559006,4.64729459 0,4.57815631 0,4.5 C0,4.42184369 0.0310559006,4.35270541 0.0931677019,4.29258517 L4.43478261,0.0901803607 C4.49689441,0.0300601202 4.56832298,0 4.64906832,0 C4.72981366,0 4.80124224,0.0300601202 4.86335404,0.0901803607 L5.32919255,0.541082164 C5.39130435,0.601202405 5.42236025,0.670340681 5.42236025,0.748496994 C5.42236025,0.826653307 5.39130435,0.895791583 5.32919255,0.955911824 L1.66770186,4.5 L5.32919255,8.04408818 C5.39130435,8.10420842 5.42236025,8.17334669 5.42236025,8.25150301 L5.42236025,8.25150301 Z M9,8.25150301 C9,8.32965932 8.9689441,8.3987976 8.9068323,8.45891784 L8.44099379,8.90981964 C8.37888199,8.96993988 8.30745342,9 8.22670807,9 C8.14596273,9 8.07453416,8.96993988 8.01242236,8.90981964 L3.67080745,4.70741483 C3.60869565,4.64729459 3.57763975,4.57815631 3.57763975,4.5 C3.57763975,4.42184369 3.60869565,4.35270541 3.67080745,4.29258517 L8.01242236,0.0901803607 C8.07453416,0.0300601202 8.14596273,0 8.22670807,0 C8.30745342,0 8.37888199,0.0300601202 8.44099379,0.0901803607 L8.9068323,0.541082164 C8.9689441,0.601202405 9,0.670340681 9,0.748496994 C9,0.826653307 8.9689441,0.895791583 8.9068323,0.955911824 L5.24534161,4.5 L8.9068323,8.04408818 C8.9689441,8.10420842 9,8.17334669 9,8.25150301 L9,8.25150301 Z" id="Shape"></path>
                </g>
            </g>
        </g>
    </g>
</svg>