<?xml version="1.0" encoding="UTF-8" standalone="no"?>
<svg width="12px" height="15px" viewBox="0 0 12 15" version="1.1" xmlns="http://www.w3.org/2000/svg" xmlns:xlink="http://www.w3.org/1999/xlink">
    <!-- Generator: sketchtool 3.8.3 (29802) - http://www.bohemiancoding.com/sketch -->
    <title>F94237B0-A94D-4AE9-9491-CD4270D9D8DB</title>
    <desc>Created with sketchtool.</desc>
    <defs></defs>
    <g id="Welcome" stroke="none" stroke-width="1" fill="none" fill-rule="evenodd">
        <g id="Dashboard" transform="translate(-26.000000, -218.000000)" fill="#5C9DF5">
            <g id="side-bar">
                <g id="board-brief" transform="translate(26.000000, 218.000000)">
                    <path d="M3.20014421,0.156249999 L0.126315789,0.15625 L0.126315789,3.40625 L0.126315789,14.84375 L11.8736842,14.84375 L11.8736842,0.15625 L4.76554295,0.15625 L3.41052632,0.15625 L3.20014421,0.156249999 Z M0.757894737,14.21875 L0.757894737,3.84375 L0.757894737,0.78125 L3.85263158,0.78125 L11.2421053,0.78125 L11.2421053,14.21875 L0.757894737,14.21875 Z" id="Shape"></path>
                    <path d="M10.0105263,5.0625 L10.0105263,1.375 L6.91578947,1.375 L6.91578947,5.0625 L10.0105263,5.0625 L10.0105263,5.0625 Z M7.54736842,2 L9.37894737,2 L9.37894737,4.4375 L7.54736842,4.4375 L7.54736842,2 L7.54736842,2 Z M1.98947368,6.75 L10.0105263,6.75 L10.0105263,7.375 L1.98947368,7.375 L1.98947368,6.75 Z M1.89473684,8.4375 L9.91578947,8.4375 L9.91578947,9.0625 L1.89473684,9.0625 L1.89473684,8.4375 Z M1.89473684,10.125 L9.91578947,10.125 L9.91578947,10.75 L1.89473684,10.75 L1.89473684,10.125 Z M1.89473684,11.8125 L6.91578947,11.8125 L6.91578947,12.4375 L1.89473684,12.4375 L1.89473684,11.8125 Z M1.89473684,1.25 L5.90526316,1.25 L5.90526316,1.875 L1.89473684,1.875 L1.89473684,1.25 Z M1.89473684,2.5 L5.90526316,2.5 L5.90526316,3.125 L1.89473684,3.125 L1.89473684,2.5 Z" id="Combined-Shape"></path>
                </g>
            </g>
        </g>
    </g>
</svg>