<?xml version="1.0" encoding="UTF-8" standalone="no"?>
<svg width="18px" height="14px" viewBox="0 0 18 14" version="1.1" xmlns="http://www.w3.org/2000/svg" xmlns:xlink="http://www.w3.org/1999/xlink">
    <!-- Generator: sketchtool 3.8.3 (29802) - http://www.bohemiancoding.com/sketch -->
    <title>F61DA7B0-9AF6-4D7A-A2D9-108536299E04</title>
    <desc>Created with sketchtool.</desc>
    <defs></defs>
    <g id="Welcome" stroke="none" stroke-width="1" fill="none" fill-rule="evenodd">
        <g id="Dashboard" transform="translate(-23.000000, -267.000000)" fill="#5C9DF5">
            <g id="side-bar">
                <g id="briefcase" transform="translate(23.000000, 267.000000)">
                    <path d="M17.9649123,2.88843564 C17.9649123,2.43090594 17.5882807,2.05838119 17.1249825,2.05838119 L12.4243509,2.05838119 L12.4243509,0.833034653 C12.4243509,0.37550495 12.0477193,0.00298019802 11.5844211,0.00298019802 L6.38021053,0.00298019802 C5.91722807,0.00298019802 5.5405614,0.37550495 5.5405614,0.833034653 L5.5405614,2.05834653 L0.839649123,2.05834653 C0.376666667,2.05834653 0,2.43087129 0,2.88840099 L0,13.1680396 C0,13.6250495 0.376631579,13.9970198 0.839649123,13.9970198 L17.1250175,13.9970198 C17.5882807,13.9970198 17.9649474,13.6250495 17.9649474,13.1680396 L17.9649474,2.88843564 L17.9649123,2.88843564 Z M6.17926316,0.634851485 L11.785614,0.634851485 L11.785614,2.05834653 L6.17926316,2.05834653 L6.17926316,0.634851485 L6.17926316,0.634851485 Z M3.12224561,13.3662228 L0.638701754,13.3662228 L0.638701754,2.69025248 L3.12224561,2.69025248 L3.12224561,13.3662228 L3.12224561,13.3662228 Z M14.2034035,13.3662228 L3.76098246,13.3662228 L3.76098246,2.69025248 L14.2034035,2.69025248 L14.2034035,13.3662228 L14.2034035,13.3662228 Z M17.3262105,13.3662228 L14.8426667,13.3662228 L14.8426667,2.69025248 L17.3262105,2.69025248 L17.3262105,13.3662228 L17.3262105,13.3662228 Z" id="Shape"></path>
                </g>
            </g>
        </g>
    </g>
</svg>