<?xml version="1.0" encoding="UTF-8" standalone="no"?>
<svg width="16px" height="16px" viewBox="0 0 16 16" version="1.1" xmlns="http://www.w3.org/2000/svg" xmlns:xlink="http://www.w3.org/1999/xlink">
    <!-- Generator: sketchtool 3.8.3 (29802) - http://www.bohemiancoding.com/sketch -->
    <title>BC029876-215F-4746-A81D-809E95D7B104</title>
    <desc>Created with sketchtool.</desc>
    <defs></defs>
    <g id="Welcome" stroke="none" stroke-width="1" fill="none" fill-rule="evenodd">
        <g id="Dashboard" transform="translate(-1224.000000, -23.000000)" fill="#FFFFFF">
            <g id="user" transform="translate(1132.000000, 21.000000)">
                <path d="M107.899772,8.61277449 C107.844046,8.53980866 107.771335,8.49640091 107.681276,8.48262415 L105.776984,8.19134396 C105.672966,7.85833257 105.530752,7.51850569 105.350415,7.17157175 C105.475134,6.99815945 105.66236,6.75367654 105.912055,6.43794077 C106.161749,6.1222779 106.338588,5.89171754 106.442752,5.74596811 C106.49826,5.6696492 106.525813,5.58994077 106.525813,5.50662415 C106.525813,5.4095672 106.501759,5.33332118 106.452993,5.27774032 C106.203408,4.923918 105.631052,4.33432346 104.736146,3.50877449 C104.65323,3.43941686 104.566269,3.40475626 104.47621,3.40475626 C104.372082,3.40475626 104.288875,3.435918 104.226405,3.49831435 L102.748902,4.61171754 C102.464401,4.46596811 102.152237,4.33764009 101.812483,4.22666059 L101.52113,2.31216401 C101.514169,2.22199544 101.474223,2.14738952 101.401403,2.08841913 C101.328474,2.02937585 101.243663,2 101.146387,2 L98.83641,2 C98.6352255,2 98.5103235,2.09705695 98.4618132,2.29131663 C98.3716082,2.63803189 98.2709795,3.28317084 98.1600364,4.22662415 C97.8339499,4.33086105 97.5183235,4.46265148 97.2131207,4.62217768 L95.7771663,3.50877449 C95.6869977,3.43941686 95.5968292,3.40475626 95.5066606,3.40475626 C95.3540592,3.40475626 95.0263326,3.65273804 94.5233713,4.14873804 C94.02041,4.64484738 93.6789431,5.01765831 93.4984237,5.26728018 C93.4359544,5.35744875 93.4048292,5.43726651 93.4048292,5.50662415 C93.4048292,5.58994077 93.4394533,5.67318451 93.5088109,5.75631891 C93.9735399,6.31832346 94.3447472,6.79682916 94.6222506,7.19241913 C94.4488018,7.51147153 94.313549,7.83063326 94.2165285,8.14968565 L92.2810387,8.44096583 C92.2047563,8.45488838 92.1388975,8.50004556 92.0833531,8.57636446 C92.0276993,8.65261048 92,8.73246469 92,8.81556264 L92,11.1256492 C92,11.2159636 92.0276993,11.2972756 92.0832437,11.3701321 C92.1387882,11.4429522 92.2115718,11.4865786 92.3017768,11.5003189 L94.2061048,11.7813212 C94.3031617,12.1211845 94.4453394,12.4644374 94.6326743,12.8111891 C94.5078815,12.9847107 94.3205831,13.2291572 94.0708519,13.54482 C93.8211572,13.8606287 93.6441002,14.0911162 93.5401549,14.2367927 C93.484574,14.3134032 93.4568747,14.3929658 93.4568747,14.476246 C93.4568747,14.5663052 93.4811481,14.6460137 93.5296583,14.7153713 C93.8002005,15.0901868 94.3724829,15.6728929 95.246615,16.463672 C95.3229704,16.5399909 95.409713,16.578041 95.5067335,16.578041 C95.610861,16.578041 95.6975672,16.5469886 95.7668884,16.4846287 L97.2341868,15.3710797 C97.5187608,15.5167563 97.8308519,15.6451207 98.1707517,15.756246 L98.4620683,17.6707426 C98.4691025,17.7608018 98.5089749,17.8354077 98.5817221,17.8945239 C98.6545057,17.9536401 98.7395718,17.9828337 98.8366651,17.9828337 L101.146642,17.9828337 C101.348191,17.9828337 101.472911,17.8858132 101.521567,17.6914806 C101.611626,17.3447289 101.712146,16.6996629 101.823125,15.756246 C102.149175,15.652082 102.464838,15.5202187 102.770041,15.3606196 L104.206105,16.4846287 C104.303162,16.5470251 104.393476,16.578041 104.476538,16.578041 C104.629103,16.578041 104.955116,16.3319544 105.454506,15.8392711 C105.95415,15.3468428 106.297513,14.9722096 106.484629,14.7153713 C106.546989,14.6460501 106.57826,14.5663052 106.57826,14.476246 C106.57826,14.3859317 106.543745,14.2990433 106.474132,14.2160547 C105.974888,13.6054305 105.603681,13.1269613 105.360838,12.7799909 C105.499554,12.5232984 105.634879,12.2077449 105.766706,11.8331116 L107.691699,11.5419772 C107.774761,11.5280182 107.844374,11.482861 107.899736,11.4065421 C107.955244,11.3300774 107.982797,11.2502597 107.982797,11.1670524 L107.982797,8.85722096 C107.982979,8.76705239 107.955426,8.68566743 107.899772,8.61277449 L107.899772,8.61277449 Z M101.875025,11.8747699 C101.354897,12.3951162 100.727071,12.6553075 99.9916173,12.6553075 C99.2562369,12.6553075 98.6284829,12.3951162 98.1081367,11.8747699 C97.5879727,11.3546424 97.3277813,10.726779 97.3277813,9.99147153 C97.3277813,9.25609112 97.5878269,8.62833713 98.1081367,8.10799089 C98.6284829,7.58782688 99.2563462,7.32763554 99.9916173,7.32763554 C100.727071,7.32763554 101.354934,7.58782688 101.875025,8.10799089 C102.395262,8.62833713 102.655453,9.25609112 102.655453,9.99147153 C102.655453,10.726779 102.395298,11.3546788 101.875025,11.8747699 L101.875025,11.8747699 Z" id="Shape"></path>
            </g>
        </g>
    </g>
</svg>