<?xml version="1.0" encoding="UTF-8" standalone="no"?>
<svg width="16px" height="11px" viewBox="0 0 16 11" version="1.1" xmlns="http://www.w3.org/2000/svg" xmlns:xlink="http://www.w3.org/1999/xlink">
    <!-- Generator: sketchtool 3.8.3 (29802) - http://www.bohemiancoding.com/sketch -->
    <title>DBF91B5A-4D20-4CE4-8A96-5B5461B90002</title>
    <desc>Created with sketchtool.</desc>
    <defs></defs>
    <g id="Welcome" stroke="none" stroke-width="1" fill="none" fill-rule="evenodd">
        <g id="Dashboard" transform="translate(-24.000000, -176.000000)" fill="#5C9DF5">
            <g id="side-bar">
                <g id="newspaper-o" transform="translate(24.000000, 176.000000)">
                    <path d="M8,3 L5,3 L5,6 L8,6 L8,3 L8,3 Z M9,8 L9,9 L4,9 L4,8 L9,8 L9,8 Z M9,2 L9,7 L4,7 L4,2 L9,2 L9,2 Z M14,8 L14,9 L10,9 L10,8 L14,8 L14,8 Z M14,6 L14,7 L10,7 L10,6 L14,6 L14,6 Z M14,4 L14,5 L10,5 L10,4 L14,4 L14,4 Z M14,2 L14,3 L10,3 L10,2 L14,2 L14,2 Z M2,9.5 L2,2 L1,2 L1,9.5 C1,9.63541667 1.04947917,9.75260417 1.1484375,9.8515625 C1.24739583,9.95052083 1.36458333,10 1.5,10 C1.63541667,10 1.75260417,9.95052083 1.8515625,9.8515625 C1.95052083,9.75260417 2,9.63541667 2,9.5 L2,9.5 Z M15,9.5 L15,1 L3,1 L3,9.5 C3,9.671875 2.97135417,9.83854167 2.9140625,10 L14.5,10 C14.6354167,10 14.7526042,9.95052083 14.8515625,9.8515625 C14.9505208,9.75260417 15,9.63541667 15,9.5 L15,9.5 Z M16,0 L16,9.5 C16,9.91666667 15.8541667,10.2708333 15.5625,10.5625 C15.2708333,10.8541667 14.9166667,11 14.5,11 L1.5,11 C1.08333333,11 0.729166667,10.8541667 0.4375,10.5625 C0.145833333,10.2708333 0,9.91666667 0,9.5 L0,1 L2,1 L2,0 L16,0 L16,0 Z" id="Shape"></path>
                </g>
            </g>
        </g>
    </g>
</svg>